<?xml version="1.0" encoding="iso-8859-1"?>
<!-- Generator: Adobe Illustrator 16.0.0, SVG Export Plug-In . SVG Version: 6.00 Build 0)  -->
<!DOCTYPE svg PUBLIC "-//W3C//DTD SVG 1.1//EN" "http://www.w3.org/Graphics/SVG/1.1/DTD/svg11.dtd">
<svg version="1.1" id="Capa_1" xmlns="http://www.w3.org/2000/svg" xmlns:xlink="http://www.w3.org/1999/xlink" x="0px" y="0px"
	 width="962.301px" height="962.301px" viewBox="0 0 962.301 962.301" style="enable-background:new 0 0 962.301 962.301;"
	 xml:space="preserve">
<g>
	<path d="M416.2,771.051c-3.3-32.101-11.699-65.5-22.1-98.9c33.6,10.4,67,18.9,99.2,22.1c64.8,6.601,115.1-9,153.8-47.699
		c38.7-38.7,54.3-89,47.7-153.801c-3.3-32.2-11.8-65.7-22.101-99.2c33.5,10.3,66.9,18.8,98.9,22.1c64.8,6.6,115.1-9,153.8-47.7
		l29.8-29.8c9.4-9.4,9.4-24.7,0-34.1l-12.6-12.6c-9.4-9.4-24.7-9.4-34.1,0l-12.2,12.2L658.7,65.95l12.2-12.2
		c9.4-9.4,9.4-24.7,0-34.1l-12.6-12.6c-9.4-9.4-24.7-9.4-34.101,0l-29.8,29.8c-38.7,38.7-54.3,89-47.7,153.8
		c3.301,32.1,11.7,65.5,22.101,98.9c-33.601-10.4-67-18.9-99.2-22.1c-64.8-6.6-115.1,9-153.8,47.7s-54.3,89-47.7,153.8
		c3.3,32.201,11.8,65.601,22.1,99.201c-33.5-10.3-66.9-18.8-98.9-22.1c-64.8-6.601-115.1,9-153.8,47.699l-30.4,30.4
		c-9.4,9.4-9.4,24.7,0,34.1l12.6,12.601c9.4,9.399,24.7,9.399,34.1,0l12.8-12.8l237.7,237.699l-12.8,12.801
		c-9.4,9.399-9.4,24.699,0,34.1l12.6,12.6c9.4,9.4,24.7,9.4,34.1,0l30.4-30.399C407.2,886.051,422.801,835.851,416.2,771.051z
		 M624.001,106.35l232,232c-11.5,6.2-24.5,10.1-39.301,11.8l-204.5-204.5C613.9,130.85,617.801,117.85,624.001,106.35z
		 M620.301,228.65L733.7,342.05c-28.1-6.7-57.699-16.4-87-26.4C636.7,286.35,627.001,256.75,620.301,228.65z M594.801,367.55
		c10.399,30.5,20.5,61.2,27.2,90.3l-117.5-117.5C533.601,347.15,564.301,357.15,594.801,367.55z M422.4,333.25l206.7,206.7
		c-1.9,14.5-6,27.3-12.4,38.7l-233-233C395.101,339.25,407.9,335.15,422.4,333.25z M346.2,383.05l233,233
		c-10.8,6.1-22.899,10.1-36.6,12.1l-208.5-208.5C336.101,406.05,340.2,393.95,346.2,383.05z M340.301,500.75l121.3,121.4
		c-30-6.8-61.8-17.2-93.4-27.9C357.4,562.551,347.001,530.75,340.301,500.75z M316.301,646.051c10,29.3,19.7,58.899,26.399,87
		l-113.399-113.4C257.4,626.351,287,636.051,316.301,646.051z M107,623.351c11.5-6.2,24.5-10.101,39.3-11.8l204.6,204.6
		c-1.7,14.7-5.6,27.7-11.8,39.3L107,623.351z"/>
</g>
<g>
</g>
<g>
</g>
<g>
</g>
<g>
</g>
<g>
</g>
<g>
</g>
<g>
</g>
<g>
</g>
<g>
</g>
<g>
</g>
<g>
</g>
<g>
</g>
<g>
</g>
<g>
</g>
<g>
</g>
</svg>
